<?xml version="1.0" encoding="UTF-8"?>
<svg id="Camada_2" data-name="Camada 2" xmlns="http://www.w3.org/2000/svg" width="61.59" height="59.48" viewBox="0 0 61.59 59.48">
  <defs>
    <style>
      .cls-1 {
        fill: #7771b2;
        stroke: #7771b2;
      }

      .cls-1, .cls-2 {
        stroke-miterlimit: 10;
        stroke-width: .5px;
      }

      .cls-2 {
        fill: #6340e3;
        stroke: #6340e3;
      }
    </style>
  </defs>
  <g id="Camada_2-2" data-name="Camada 2">
    <path class="cls-2" d="m9.085,4.316v10.45c-4.44,2.235-7.67,6.237-8.57,10.984-.11.561-.18,1.122-.22,1.702h-.04V4.316C.255,2.071,2.235.25,4.665.25s4.42,1.821,4.42,4.066Z"/>
    <path class="cls-2" d="m61.335,4.316v23.136h-.04c-.38-5.483-3.83-10.193-8.79-12.695V4.316c0-2.245,1.98-4.066,4.42-4.066s4.41,1.821,4.41,4.066Z"/>
    <path class="cls-1" d="m61.325,28.002c-.01-.12-.01-.24-.03-.36-.471-6.417-9.216-10.576-15.88-10.62-4.689.002-25.92.055-30.41.08-6.363.405-14.173,4.34-14.71,10.54-.01.02-.01.04-.01.06-.007-.082-.005-.168.01-.25.43-7.811,6.525-14.433,14.124-15.638.389-.062.778-.083,1.172-.085,5.111-.026,24.533-.092,29.448-.115.252-.001.504.004.755.024,8.225.662,14.979,7.366,15.501,15.814.02.18.02.36.03.55Z"/>
    <path class="cls-2" d="m61.33,28c-.02-.12-.02-.24-.04-.36-.02-.16-.03-.31-.06-.47-.02-.15-.05-.3-.08-.46-.2-.91-.56-1.79-1.06-2.62-.14-.22-.28-.44-.43-.65-.1-.14-.2-.27-.31-.4-.01-.01-.02-.03-.03-.04-.09-.11-.18-.23-.3-.34-1.53-1.8-3.8-3.27-6.52-4.27-.18-.07-.36-.13-.54-.18-.19-.06-.37-.12-.55-.18-.25-.08-.51-.16-.77-.23-1.63-.43-3.38-.7-5.23-.78h-2.14l-1.57.01-4.51.01-8.86.02-3.54.01-2.76.01h-2.74l-2.79.01c-.158.003-.297.004-.444.005-.367.001-.698.003-.966.005h-.09c-1.73.15-3.38.48-4.91.95-.23.07-.46.15-.69.23-.1.04-.21.07-.31.11-1.76.64-3.34,1.49-4.65,2.52-.16.13-.32.25-.48.38-.15.13-.31.27-.46.4-.23.2-.45.42-.65.64l-.01.01c-.14.15-.26.29-.39.44-.12.14-.23.28-.34.42-.75.99-1.29,2.06-1.59,3.2-.11.4-.18.81-.23,1.24v.06c-.01.1-.02.2-.01.3-.03.16-.03.32-.03.48v.07c0,6.84,4.05,12.73,9.87,15.42.66.3,1.33.56,2.02.78-.06.97-.21,1.93-.41,2.85-1.2,5.15-4.75,9.4-9.44,11.56.48.05.95.07,1.44.07,8.25,0,15.12-5.88,16.66-13.68l22.69-.08c.41.03.85.05,1.28.05,9.37,0,16.98-7.6,16.98-16.97v-.18c0-.12,0-.24-.01-.37Zm-33.35,4.79c0,2.43-1.97,4.41-4.41,4.41s-4.42-1.98-4.42-4.41v-7.57c0-2.44,1.98-4.41,4.42-4.41,1.22,0,2.32.49,3.12,1.29.8.8,1.29,1.9,1.29,3.12v7.57Zm19.95,0c0,2.43-1.97,4.41-4.41,4.41s-4.42-1.98-4.42-4.41v-7.57c0-2.44,1.98-4.41,4.42-4.41,1.22,0,2.32.49,3.12,1.29.8.8,1.29,1.9,1.29,3.12v7.57Z"/>
  </g>
</svg>